<mxfile host="app.diagrams.net" modified="2021-05-21T09:07:22.506Z" agent="5.0 (Windows NT 10.0; Win64; x64) AppleWebKit/537.36 (KHTML, like Gecko) Chrome/90.0.4430.212 Safari/537.36" etag="Jc2L3uPanjOcRIohz-87" version="14.6.13" type="github">
  <diagram id="C5RBs43oDa-KdzZeNtuy" name="Page-1">
    <mxGraphModel dx="1303" dy="710" grid="1" gridSize="10" guides="1" tooltips="1" connect="1" arrows="1" fold="1" page="1" pageScale="1" pageWidth="827" pageHeight="1169" math="0" shadow="0">
      <root>
        <mxCell id="WIyWlLk6GJQsqaUBKTNV-0" />
        <mxCell id="WIyWlLk6GJQsqaUBKTNV-1" parent="WIyWlLk6GJQsqaUBKTNV-0" />
        <mxCell id="AIHD_OOMMo5D3m6KO-nK-45" value="Деление выборки на части&lt;br style=&quot;font-size: 17px;&quot;&gt;&lt;br style=&quot;font-size: 17px;&quot;&gt;&lt;br style=&quot;font-size: 17px;&quot;&gt;" style="rounded=1;whiteSpace=wrap;html=1;fontSize=17;dashed=1;fillColor=#FFFFFF;fontFamily=Times New Roman;" parent="WIyWlLk6GJQsqaUBKTNV-1" vertex="1">
          <mxGeometry x="475" y="640" width="215" height="60" as="geometry" />
        </mxCell>
        <mxCell id="WIyWlLk6GJQsqaUBKTNV-3" value="Датасет финансовой отчетности" style="rounded=1;whiteSpace=wrap;html=1;fontSize=17;glass=0;strokeWidth=1;shadow=0;fontFamily=Times New Roman;" parent="WIyWlLk6GJQsqaUBKTNV-1" vertex="1">
          <mxGeometry x="260" y="190" width="120" height="60" as="geometry" />
        </mxCell>
        <mxCell id="AIHD_OOMMo5D3m6KO-nK-4" value="Тренировочная выборка&lt;table style=&quot;font-size: 17px;&quot;&gt;&lt;tbody style=&quot;font-size: 17px;&quot;&gt;&lt;tr style=&quot;font-size: 17px;&quot;&gt;&lt;td style=&quot;border: 1px solid rgb(0, 0, 0); border-collapse: collapse; font-size: 17px;&quot;&gt;&lt;span style=&quot;background-color: rgb(212, 225, 245); font-size: 17px;&quot;&gt;1&lt;/span&gt;&lt;/td&gt;&lt;td style=&quot;border: 1px solid rgb(0, 0, 0); border-collapse: collapse; font-size: 17px;&quot;&gt;&lt;span style=&quot;background-color: rgb(212, 225, 245); font-size: 17px;&quot;&gt;0&amp;nbsp; &amp;nbsp; &amp;nbsp; &amp;nbsp; &amp;nbsp; &amp;nbsp; &amp;nbsp; &amp;nbsp; &amp;nbsp; &amp;nbsp;&amp;nbsp;&lt;/span&gt;&lt;/td&gt;&lt;/tr&gt;&lt;/tbody&gt;&lt;/table&gt;" style="rounded=1;whiteSpace=wrap;html=1;fontSize=17;glass=0;strokeWidth=1;shadow=0;fontFamily=Times New Roman;" parent="WIyWlLk6GJQsqaUBKTNV-1" vertex="1">
          <mxGeometry x="380" y="270" width="200" height="50" as="geometry" />
        </mxCell>
        <mxCell id="AIHD_OOMMo5D3m6KO-nK-7" value="" style="endArrow=classic;html=1;exitX=0.75;exitY=1;exitDx=0;exitDy=0;fontSize=17;fontFamily=Times New Roman;" parent="WIyWlLk6GJQsqaUBKTNV-1" source="WIyWlLk6GJQsqaUBKTNV-3" target="AIHD_OOMMo5D3m6KO-nK-4" edge="1">
          <mxGeometry width="50" height="50" relative="1" as="geometry">
            <mxPoint x="280" y="330" as="sourcePoint" />
            <mxPoint x="330" y="280" as="targetPoint" />
          </mxGeometry>
        </mxCell>
        <mxCell id="AIHD_OOMMo5D3m6KO-nK-9" value="" style="endArrow=classic;html=1;exitX=0.25;exitY=1;exitDx=0;exitDy=0;entryX=0.75;entryY=0;entryDx=0;entryDy=0;fontSize=17;fontFamily=Times New Roman;" parent="WIyWlLk6GJQsqaUBKTNV-1" source="WIyWlLk6GJQsqaUBKTNV-3" target="AIHD_OOMMo5D3m6KO-nK-18" edge="1">
          <mxGeometry width="50" height="50" relative="1" as="geometry">
            <mxPoint x="280" y="330" as="sourcePoint" />
            <mxPoint x="230" y="280" as="targetPoint" />
          </mxGeometry>
        </mxCell>
        <mxCell id="AIHD_OOMMo5D3m6KO-nK-14" value="" style="endArrow=classic;html=1;fontSize=17;exitX=0;exitY=0.75;exitDx=0;exitDy=0;entryX=0.5;entryY=0;entryDx=0;entryDy=0;fontFamily=Times New Roman;" parent="WIyWlLk6GJQsqaUBKTNV-1" source="AIHD_OOMMo5D3m6KO-nK-4" target="AIHD_OOMMo5D3m6KO-nK-15" edge="1">
          <mxGeometry width="50" height="50" relative="1" as="geometry">
            <mxPoint x="440" y="310" as="sourcePoint" />
            <mxPoint x="480" y="350" as="targetPoint" />
          </mxGeometry>
        </mxCell>
        <mxCell id="AIHD_OOMMo5D3m6KO-nK-15" value="&lt;i style=&quot;font-size: 17px;&quot;&gt;SMOTE&lt;/i&gt;" style="rounded=0;whiteSpace=wrap;html=1;fontSize=17;fontFamily=Times New Roman;" parent="WIyWlLk6GJQsqaUBKTNV-1" vertex="1">
          <mxGeometry x="260" y="330" width="120" height="30" as="geometry" />
        </mxCell>
        <mxCell id="AIHD_OOMMo5D3m6KO-nK-16" value="Сбалансированная тренировочная выборка&lt;table style=&quot;font-size: 17px;&quot;&gt;&lt;tbody style=&quot;font-size: 17px;&quot;&gt;&lt;tr style=&quot;font-size: 17px;&quot;&gt;&lt;td style=&quot;border: 1px solid rgb(0, 0, 0); border-collapse: collapse; font-size: 17px;&quot;&gt;&lt;span style=&quot;background-color: rgb(212, 225, 245); font-size: 17px;&quot;&gt;1&amp;nbsp; &amp;nbsp; &amp;nbsp; &amp;nbsp; &amp;nbsp; &amp;nbsp; &amp;nbsp; &amp;nbsp; &amp;nbsp; &amp;nbsp;&lt;/span&gt;&lt;/td&gt;&lt;td style=&quot;border: 1px solid rgb(0, 0, 0); border-collapse: collapse; font-size: 17px;&quot;&gt;&lt;span style=&quot;background-color: rgb(212, 225, 245); font-size: 17px;&quot;&gt;0&amp;nbsp; &amp;nbsp; &amp;nbsp; &amp;nbsp; &amp;nbsp; &amp;nbsp; &amp;nbsp; &amp;nbsp; &amp;nbsp; &amp;nbsp;&amp;nbsp;&lt;/span&gt;&lt;/td&gt;&lt;/tr&gt;&lt;/tbody&gt;&lt;/table&gt;" style="rounded=1;whiteSpace=wrap;html=1;fontSize=17;glass=0;strokeWidth=1;shadow=0;fontFamily=Times New Roman;" parent="WIyWlLk6GJQsqaUBKTNV-1" vertex="1">
          <mxGeometry x="362.5" y="380" width="215" height="70" as="geometry" />
        </mxCell>
        <mxCell id="AIHD_OOMMo5D3m6KO-nK-17" value="" style="endArrow=classic;html=1;fontSize=17;exitX=0.5;exitY=1;exitDx=0;exitDy=0;fontFamily=Times New Roman;" parent="WIyWlLk6GJQsqaUBKTNV-1" source="AIHD_OOMMo5D3m6KO-nK-15" target="AIHD_OOMMo5D3m6KO-nK-16" edge="1">
          <mxGeometry width="50" height="50" relative="1" as="geometry">
            <mxPoint x="430" y="280" as="sourcePoint" />
            <mxPoint x="473" y="400" as="targetPoint" />
          </mxGeometry>
        </mxCell>
        <mxCell id="AIHD_OOMMo5D3m6KO-nK-18" value="Тестовая выборка&lt;table style=&quot;font-size: 17px;&quot;&gt;&lt;tbody style=&quot;font-size: 17px;&quot;&gt;&lt;tr style=&quot;font-size: 17px;&quot;&gt;&lt;td style=&quot;border: 1px solid rgb(0, 0, 0); border-collapse: collapse; font-size: 17px;&quot;&gt;&lt;span style=&quot;background-color: rgb(212, 225, 245); font-size: 17px;&quot;&gt;1&lt;/span&gt;&lt;/td&gt;&lt;td style=&quot;border: 1px solid rgb(0, 0, 0); border-collapse: collapse; font-size: 17px;&quot;&gt;&lt;span style=&quot;background-color: rgb(212, 225, 245); font-size: 17px;&quot;&gt;0&amp;nbsp; &amp;nbsp; &amp;nbsp; &amp;nbsp; &amp;nbsp; &amp;nbsp; &amp;nbsp; &amp;nbsp; &amp;nbsp; &amp;nbsp;&amp;nbsp;&lt;/span&gt;&lt;/td&gt;&lt;/tr&gt;&lt;/tbody&gt;&lt;/table&gt;" style="rounded=1;whiteSpace=wrap;html=1;fontSize=17;glass=0;strokeWidth=1;shadow=0;fontFamily=Times New Roman;" parent="WIyWlLk6GJQsqaUBKTNV-1" vertex="1">
          <mxGeometry x="110" y="270" width="150" height="50" as="geometry" />
        </mxCell>
        <mxCell id="AIHD_OOMMo5D3m6KO-nK-21" value="" style="endArrow=classic;html=1;fontSize=17;exitX=0.5;exitY=1;exitDx=0;exitDy=0;entryX=0.5;entryY=0;entryDx=0;entryDy=0;fontFamily=Times New Roman;" parent="WIyWlLk6GJQsqaUBKTNV-1" source="AIHD_OOMMo5D3m6KO-nK-16" edge="1">
          <mxGeometry width="50" height="50" relative="1" as="geometry">
            <mxPoint x="300" y="470" as="sourcePoint" />
            <mxPoint x="470" y="480" as="targetPoint" />
          </mxGeometry>
        </mxCell>
        <mxCell id="AIHD_OOMMo5D3m6KO-nK-22" value="Обучение модели" style="rounded=1;whiteSpace=wrap;html=1;fontSize=17;fontFamily=Times New Roman;" parent="WIyWlLk6GJQsqaUBKTNV-1" vertex="1">
          <mxGeometry x="250" y="550" width="120" height="40" as="geometry" />
        </mxCell>
        <mxCell id="AIHD_OOMMo5D3m6KO-nK-23" value="" style="endArrow=classic;html=1;fontSize=17;exitX=0;exitY=1;exitDx=0;exitDy=0;fontFamily=Times New Roman;" parent="WIyWlLk6GJQsqaUBKTNV-1" source="AIHD_OOMMo5D3m6KO-nK-34" target="AIHD_OOMMo5D3m6KO-nK-22" edge="1">
          <mxGeometry width="50" height="50" relative="1" as="geometry">
            <mxPoint x="470" y="530" as="sourcePoint" />
            <mxPoint x="350" y="400" as="targetPoint" />
          </mxGeometry>
        </mxCell>
        <mxCell id="AIHD_OOMMo5D3m6KO-nK-24" value="Тестирование модели" style="rounded=1;whiteSpace=wrap;html=1;fontSize=17;fontFamily=Times New Roman;" parent="WIyWlLk6GJQsqaUBKTNV-1" vertex="1">
          <mxGeometry x="250" y="625" width="120" height="40" as="geometry" />
        </mxCell>
        <mxCell id="AIHD_OOMMo5D3m6KO-nK-25" value="" style="endArrow=classic;html=1;fontSize=17;exitX=0.5;exitY=1;exitDx=0;exitDy=0;entryX=0.5;entryY=0;entryDx=0;entryDy=0;fontFamily=Times New Roman;" parent="WIyWlLk6GJQsqaUBKTNV-1" source="AIHD_OOMMo5D3m6KO-nK-22" target="AIHD_OOMMo5D3m6KO-nK-24" edge="1">
          <mxGeometry width="50" height="50" relative="1" as="geometry">
            <mxPoint x="270" y="610" as="sourcePoint" />
            <mxPoint x="320" y="560" as="targetPoint" />
          </mxGeometry>
        </mxCell>
        <mxCell id="AIHD_OOMMo5D3m6KO-nK-26" value="" style="endArrow=classic;html=1;fontSize=17;exitX=0.5;exitY=1;exitDx=0;exitDy=0;entryX=0;entryY=0.5;entryDx=0;entryDy=0;fontFamily=Times New Roman;" parent="WIyWlLk6GJQsqaUBKTNV-1" source="AIHD_OOMMo5D3m6KO-nK-18" target="AIHD_OOMMo5D3m6KO-nK-24" edge="1">
          <mxGeometry width="50" height="50" relative="1" as="geometry">
            <mxPoint x="310" y="470" as="sourcePoint" />
            <mxPoint x="185" y="700" as="targetPoint" />
            <Array as="points">
              <mxPoint x="185" y="645" />
            </Array>
          </mxGeometry>
        </mxCell>
        <mxCell id="AIHD_OOMMo5D3m6KO-nK-30" value="Нет" style="text;html=1;strokeColor=none;fillColor=none;align=center;verticalAlign=middle;whiteSpace=wrap;rounded=0;fontSize=17;fontFamily=Times New Roman;" parent="WIyWlLk6GJQsqaUBKTNV-1" vertex="1">
          <mxGeometry x="362.5" y="510" width="40" height="20" as="geometry" />
        </mxCell>
        <mxCell id="AIHD_OOMMo5D3m6KO-nK-34" value="&lt;span style=&quot;font-size: 17px;&quot;&gt;Ансамблевая модель?&lt;/span&gt;" style="ellipse;whiteSpace=wrap;html=1;fontSize=17;fontFamily=Times New Roman;" parent="WIyWlLk6GJQsqaUBKTNV-1" vertex="1">
          <mxGeometry x="410" y="480" width="120" height="50" as="geometry" />
        </mxCell>
        <mxCell id="AIHD_OOMMo5D3m6KO-nK-35" value="Нужна настройка гиперпараметров?" style="ellipse;whiteSpace=wrap;html=1;fontSize=17;fontFamily=Times New Roman;" parent="WIyWlLk6GJQsqaUBKTNV-1" vertex="1">
          <mxGeometry x="500" y="550" width="170" height="60" as="geometry" />
        </mxCell>
        <mxCell id="AIHD_OOMMo5D3m6KO-nK-36" value="" style="endArrow=classic;html=1;fontSize=17;exitX=1;exitY=1;exitDx=0;exitDy=0;entryX=0.5;entryY=0;entryDx=0;entryDy=0;fontFamily=Times New Roman;" parent="WIyWlLk6GJQsqaUBKTNV-1" source="AIHD_OOMMo5D3m6KO-nK-34" target="AIHD_OOMMo5D3m6KO-nK-35" edge="1">
          <mxGeometry width="50" height="50" relative="1" as="geometry">
            <mxPoint x="340" y="590" as="sourcePoint" />
            <mxPoint x="390" y="540" as="targetPoint" />
          </mxGeometry>
        </mxCell>
        <mxCell id="AIHD_OOMMo5D3m6KO-nK-37" value="Да" style="text;html=1;strokeColor=none;fillColor=none;align=center;verticalAlign=middle;whiteSpace=wrap;rounded=0;fontSize=17;fontFamily=Times New Roman;" parent="WIyWlLk6GJQsqaUBKTNV-1" vertex="1">
          <mxGeometry x="540" y="510" width="40" height="20" as="geometry" />
        </mxCell>
        <mxCell id="AIHD_OOMMo5D3m6KO-nK-38" value="" style="endArrow=classic;html=1;fontSize=17;exitX=0;exitY=0.5;exitDx=0;exitDy=0;entryX=1;entryY=0.75;entryDx=0;entryDy=0;fontFamily=Times New Roman;" parent="WIyWlLk6GJQsqaUBKTNV-1" source="AIHD_OOMMo5D3m6KO-nK-35" target="AIHD_OOMMo5D3m6KO-nK-22" edge="1">
          <mxGeometry width="50" height="50" relative="1" as="geometry">
            <mxPoint x="340" y="590" as="sourcePoint" />
            <mxPoint x="390" y="540" as="targetPoint" />
          </mxGeometry>
        </mxCell>
        <mxCell id="AIHD_OOMMo5D3m6KO-nK-39" value="Нет" style="text;html=1;strokeColor=none;fillColor=none;align=center;verticalAlign=middle;whiteSpace=wrap;rounded=0;fontSize=17;fontFamily=Times New Roman;" parent="WIyWlLk6GJQsqaUBKTNV-1" vertex="1">
          <mxGeometry x="420" y="560" width="40" height="20" as="geometry" />
        </mxCell>
        <mxCell id="AIHD_OOMMo5D3m6KO-nK-40" value="Да" style="text;html=1;strokeColor=none;fillColor=none;align=center;verticalAlign=middle;whiteSpace=wrap;rounded=0;fontSize=17;fontFamily=Times New Roman;" parent="WIyWlLk6GJQsqaUBKTNV-1" vertex="1">
          <mxGeometry x="590" y="620" width="40" height="20" as="geometry" />
        </mxCell>
        <mxCell id="AIHD_OOMMo5D3m6KO-nK-41" value="" style="endArrow=classic;html=1;fontSize=17;exitX=0.5;exitY=1;exitDx=0;exitDy=0;fontFamily=Times New Roman;" parent="WIyWlLk6GJQsqaUBKTNV-1" source="AIHD_OOMMo5D3m6KO-nK-35" edge="1">
          <mxGeometry width="50" height="50" relative="1" as="geometry">
            <mxPoint x="340" y="590" as="sourcePoint" />
            <mxPoint x="585" y="640" as="targetPoint" />
          </mxGeometry>
        </mxCell>
        <mxCell id="AIHD_OOMMo5D3m6KO-nK-42" value="&lt;i style=&quot;font-size: 17px;&quot;&gt;Fold &lt;/i&gt;1" style="rounded=1;whiteSpace=wrap;html=1;fontSize=17;fontFamily=Times New Roman;" parent="WIyWlLk6GJQsqaUBKTNV-1" vertex="1">
          <mxGeometry x="480" y="670" width="60" height="25" as="geometry" />
        </mxCell>
        <mxCell id="AIHD_OOMMo5D3m6KO-nK-43" value="&lt;i style=&quot;font-size: 17px;&quot;&gt;Fold&amp;nbsp;&lt;/i&gt;2" style="rounded=1;whiteSpace=wrap;html=1;fontSize=17;fontFamily=Times New Roman;" parent="WIyWlLk6GJQsqaUBKTNV-1" vertex="1">
          <mxGeometry x="552.5" y="670" width="60" height="25" as="geometry" />
        </mxCell>
        <mxCell id="AIHD_OOMMo5D3m6KO-nK-44" value="&lt;i style=&quot;font-size: 17px;&quot;&gt;Fold&amp;nbsp;&lt;/i&gt;3" style="rounded=1;whiteSpace=wrap;html=1;fontSize=17;fontFamily=Times New Roman;" parent="WIyWlLk6GJQsqaUBKTNV-1" vertex="1">
          <mxGeometry x="625" y="670" width="60" height="25" as="geometry" />
        </mxCell>
        <mxCell id="AIHD_OOMMo5D3m6KO-nK-46" value="Обучение модели с 50 случайными комбинациями гипермарапетров на каждой части, выбор лучшей комбинации" style="rounded=1;whiteSpace=wrap;html=1;fontSize=17;fillColor=#FFFFFF;fontFamily=Times New Roman;" parent="WIyWlLk6GJQsqaUBKTNV-1" vertex="1">
          <mxGeometry x="210" y="724" width="475" height="40" as="geometry" />
        </mxCell>
        <mxCell id="AIHD_OOMMo5D3m6KO-nK-47" value="" style="endArrow=classic;html=1;fontSize=17;exitX=0.5;exitY=1;exitDx=0;exitDy=0;entryX=0.77;entryY=-0.044;entryDx=0;entryDy=0;entryPerimeter=0;fontFamily=Times New Roman;" parent="WIyWlLk6GJQsqaUBKTNV-1" source="AIHD_OOMMo5D3m6KO-nK-45" target="AIHD_OOMMo5D3m6KO-nK-46" edge="1">
          <mxGeometry width="50" height="50" relative="1" as="geometry">
            <mxPoint x="340" y="590" as="sourcePoint" />
            <mxPoint x="390" y="540" as="targetPoint" />
          </mxGeometry>
        </mxCell>
        <mxCell id="AIHD_OOMMo5D3m6KO-nK-48" value="" style="endArrow=classic;html=1;fontSize=17;exitX=0.25;exitY=0;exitDx=0;exitDy=0;entryX=0.5;entryY=1;entryDx=0;entryDy=0;fontFamily=Times New Roman;" parent="WIyWlLk6GJQsqaUBKTNV-1" source="AIHD_OOMMo5D3m6KO-nK-46" target="AIHD_OOMMo5D3m6KO-nK-24" edge="1">
          <mxGeometry width="50" height="50" relative="1" as="geometry">
            <mxPoint x="300" y="670" as="sourcePoint" />
            <mxPoint x="350" y="620" as="targetPoint" />
          </mxGeometry>
        </mxCell>
      </root>
    </mxGraphModel>
  </diagram>
</mxfile>
